# xmcd CD database file
#
# Track frame offsets:
#        183
#        23303
#        47983
#        68773
#        95438
#        109848
#        129568
#        145020
#        167035
#        181658
#        205200
#        219925
#        236588
#        256728
#
# Disc length: 3616 seconds
#
# Revision: 0
# Processed by: cddbd v1.5.2PL0 Copyright (c) Steve Scherf et al.
# Submitted via: CUERipper 2.1.5
#
DISCID=b60e1e0e
DTITLE=Various Artist - Traditional Music Of The Incas
DYEAR=1995
DGENRE=Native So. American
TTITLE0=Tadonoajuspa
TTITLE1=Aquitade P.
TTITLE2=Tinko "Tosuri"
TTITLE3=Perdonaguangoi
TTITLE4=Tristesa (Sadness)
TTITLE5=Malki
TTITLE6=Jiliquita
TTITLE7=Postes (Poles)
TTITLE8=Bolivianita
TTITLE9=Piedrita Blanca
TTITLE10=Taky Llacta
TTITLE11=Mamita
TTITLE12=El Puenta
TTITLE13=Inti Raimi
EXTD=
EXTT0=
EXTT1=
EXTT2=
EXTT3=
EXTT4=
EXTT5=
EXTT6=
EXTT7=
EXTT8=
EXTT9=
EXTT10=
EXTT11=
EXTT12=
EXTT13=
PLAYORDER=
